<?xml version="1.0" standalone="no"?><!DOCTYPE svg PUBLIC "-//W3C//DTD SVG 1.1//EN" "http://www.w3.org/Graphics/SVG/1.1/DTD/svg11.dtd"><svg t="1709005730696" class="icon" viewBox="0 0 1024 1024" version="1.1" xmlns="http://www.w3.org/2000/svg" p-id="4446" xmlns:xlink="http://www.w3.org/1999/xlink" width="128" height="128"><path d="M1015.21088571 649.23933221c-4.15876806-16.63507086-12.47630281-29.11137367-29.11137366-29.11137366-29.11137367 0-49.90521121-20.79383893-49.90521122-49.90521122 0-8.31753474 4.15876806-20.79383893 4.15876807-20.79383891 8.31753474-16.63507086 0-33.27014173-12.47630281-41.58767648l-58.22274733-33.27014036c-4.15876806 0-8.31753474-4.15876806-12.47630281-4.15876805-8.31753474 0-20.79383893 4.15876806-29.11137366 12.4763028-8.31753474 8.31753474-24.9526056 24.9526056-41.58767647 24.95260561-12.47630281 0-33.27014173-16.63507086-41.58767648-24.95260561-8.31753474-8.31753474-16.63507086-12.47630281-29.11137365-12.4763028-4.15876806 0-8.31753474 0-12.47630419 4.15876805l-58.22274595 33.27014036c-12.47630281 8.31753474-16.63507086 29.11137367-12.4763042 41.58767648 0 4.15876806 4.15876806 12.47630281 4.15876808 20.79383891 0 29.11137367-20.79383893 49.90521121-49.90521122 49.90521122-12.47630281 0-24.9526056 12.47630281-29.11137368 29.11137366 0 0-4.15876806 24.9526056-4.15876806 45.74644455 0 20.79383893 4.15876806 45.74644453 4.15876806 45.74644453 4.15876806 16.63507086 12.47630281 29.11137367 29.11137368 29.11137366 29.11137367 0 49.90521121 20.79383893 49.90521122 49.90521122 0 8.31753474-4.15876806 20.79383893-4.15876808 20.79383892-8.31753474 16.63507086 0 33.27014173 12.4763042 41.58767648l54.06397926 33.27014035c4.15876806 0 8.31753474 4.15876806 12.47630281 4.15876804 12.47630281 0 20.79383893-4.15876806 29.11137367-12.47630279 8.31753474-8.31753474 29.11137367-24.9526056 41.58767647-24.9526056 12.47630281 0 33.27014173 16.63507086 41.58767647 24.9526056 8.31753474 8.31753474 16.63507086 12.47630281 29.11137366 12.47630279 4.15876806 0 8.31753474 0 12.47630281-4.15876804l58.22274735-33.27014035c12.47630281-8.31753474 16.63507086-29.11137367 12.47630278-41.58767648 0 0-4.15876806-12.47630281-4.15876804-20.79383892 0-29.11137367 20.79383893-49.90521121 49.90521259-49.90521122 12.47630281 0 24.9526056-12.47630281 29.11137367-29.11137366 0 0 4.15876806-24.9526056 4.15876666-45.74644453 4.15876806-20.79383893 0-45.74644453 0-45.74644455z m-41.58767646 74.85781821c-45.74644453 4.15876806-83.17535295 45.74644453-83.17535294 91.49288907 0 12.47630281 4.15876806 20.79383893 4.15876806 29.1113723l-41.58767648 24.95260697-16.63507084-16.63507087c-16.63507086-12.47630281-37.42890842-20.79383893-54.06397929-20.79383893s-33.27014173 8.31753474-49.9052126 20.79383893c-8.31753474 4.15876806-12.47630281 12.47630281-16.63506947 16.63507087l-41.58767648-24.95260697c4.15876806-8.31753474 4.15876806-16.63507086 4.15876667-29.1113723 0-45.74644453-33.27014173-87.334121-83.17535293-91.49288907 0-8.31753474-4.15876806-20.79383893-4.15876808-29.11137366 0-8.31753474 0-24.9526056 4.15876808-29.11137368 45.74644453-4.15876806 83.17535295-45.74644453 83.17535293-91.49288768 0-12.47630281-4.15876806-20.79383893-4.15876667-29.11137367l45.74644315-24.95260699c4.15876806 4.15876806 8.31753474 8.31753474 16.63507086 12.47630419 16.63507086 12.47630281 33.27014173 20.79383893 49.9052126 20.79383754 16.63507086 0 33.27014173-8.31753474 49.90521123-20.79383754 8.31753474-4.15876806 12.47630281-12.47630281 16.63507084-12.47630419l41.58767648 24.95260699c-4.15876806 8.31753474-4.15876806 16.63507086-4.15876806 29.11137367 0 45.74644453 33.27014173 87.334121 83.17535294 91.49288768 0 8.31753474 4.15876806 20.79383893 4.15876806 29.11137368 0 8.31753474-4.15876806 24.9526056-4.15876806 29.11137366z" p-id="4447"></path><path d="M782.31989776 607.65165574c-45.74644453 0-87.334121 37.42890842-87.334121 87.33412102 0 45.74644453 37.42890842 87.334121 87.334121 87.334121s87.334121-37.42890842 87.334121-87.334121c0-24.9526056-8.31753474-45.74644453-24.95260697-62.38151541-16.63507086-16.63507086-37.42890842-24.9526056-62.38151403-24.95260561z m33.27014173 116.44549468c-8.31753474 8.31753474-20.79383893 12.47630281-29.11137367 12.4763028-24.9526056 0-41.58767647-20.79383893-41.58767648-41.58767646 0-24.9526056 20.79383893-41.58767647 41.58767648-41.58767647 24.9526056 0 41.58767647 20.79383893 41.58767647 41.58767647 0 12.47630281-4.15876806 20.79383893-12.4763028 29.11137366zM466.25355547 337.33175798c0 45.74644453 37.42890842 83.17535295 83.17535295 83.17535295s83.17535295-37.42890842 83.17535293-83.17535295-37.42890842-83.17535295-83.17535293-83.17535293-83.17535295 37.42890842-83.17535295 83.17535293z m120.60426274 0c0 20.79383893-16.63507086 37.42890842-37.42890979 37.42890981s-37.42890842-16.63507086-37.42890842-37.42890981 16.63507086-37.42890842 37.42890842-37.4289084 37.42890842 16.63507086 37.42890979 37.4289084z" p-id="4448"></path><path d="M882.13032157 116.91707283H129.39337563c-58.22274733 0-108.12795855 49.90521121-108.12795855 108.12795855v586.38624004c0 58.22274733 49.90521121 108.12795855 108.12795855 108.12795854h461.62320924c16.63507086 0 29.11137367-12.47630281 29.11137368-29.11137365 0-16.63507086-12.47630281-29.11137367-29.11137368-29.11137368h-457.46444118c-29.11137367 0-54.06397929-24.9526056-54.06397927-54.06397927v-116.44549467l220.41468516-220.41468516c8.31753474-8.31753474 24.9526056-8.31753474 33.27014173 0l137.23933222 137.23933221 4.15876805 4.15876807c8.31753474 8.31753474 29.11137367 8.31753474 37.42890842 0 8.31753474-8.31753474 8.31753474-24.9526056 4.15876806-33.27014174 0 0 0-4.15876806-4.15876806-4.15876667l-4.15876806-4.15876807-145.55686697-141.39810028c-12.47630281-12.47630281-29.11137367-20.79383893-49.90521259-20.79383892-16.63507086 0-37.42890842 8.31753474-49.90521121 20.79383892l-187.14454481 187.14454482v-390.92416049c0-29.11137367 24.9526056-54.06397929 54.06397927-54.06397927h752.73694594c29.11137367 0 54.06397929 24.9526056 54.06397926 54.06397927v253.68482689c0 12.47630281 12.47630281 24.9526056 24.95260561 24.95260699s24.9526056-8.31753474 24.95260561-20.79383893v-257.84359495c4.15876806-58.22274733-45.74644453-108.12795855-103.96919048-108.12795855z" p-id="4449"></path></svg>